<?xml version="1.0" standalone="no"?><svg xmlns="http://www.w3.org/2000/svg" viewBox="0 0 1440 320"><path fill="#0099ff" fill-opacity="1" d="M0,256L24,218.7C48,181,96,107,144,96C192,85,240,139,288,160C336,181,384,171,432,186.7C480,203,528,245,576,245.3C624,245,672,203,720,160C768,117,816,75,864,96C912,117,960,203,1008,229.3C1056,256,1104,224,1152,202.7C1200,181,1248,171,1296,160C1344,149,1392,139,1416,133.3L1440,128L1440,320L1416,320C1392,320,1344,320,1296,320C1248,320,1200,320,1152,320C1104,320,1056,320,1008,320C960,320,912,320,864,320C816,320,768,320,720,320C672,320,624,320,576,320C528,320,480,320,432,320C384,320,336,320,288,320C240,320,192,320,144,320C96,320,48,320,24,320L0,320Z"></path></svg>